<?xml version="1.0" encoding="UTF-8"?>
<svg width="82px" height="82px" viewBox="0 0 82 82" version="1.1" xmlns="http://www.w3.org/2000/svg" xmlns:xlink="http://www.w3.org/1999/xlink">
    <!-- Generator: Sketch 52.5 (67469) - http://www.bohemiancoding.com/sketch -->
    <title>noun_Search_2057262</title>
    <desc>Created with Sketch.</desc>
    <g id="Page-1" stroke="none" stroke-width="1" fill="none" fill-rule="evenodd">
        <g id="noun_Search_2057262" fill="#000000" fill-rule="nonzero">
            <path d="M35.5,70.5 C44.2,70.5 52.3,67.3 58.4,61.9 L77.3,80.8 C77.8,81.3 78.4,81.5 79.1,81.5 C79.8,81.5 80.4,81.3 80.9,80.8 C81.9,79.8 81.9,78.2 80.9,77.3 L61.9,58.4 C67.2,52.3 70.5,44.3 70.5,35.5 C70.5,16.2 54.8,0.5 35.5,0.5 C16.2,0.5 0.5,16.2 0.5,35.5 C0.5,54.8 16.2,70.5 35.5,70.5 Z M35.5,5.5 C52,5.5 65.5,19 65.5,35.5 C65.5,52 52,65.5 35.5,65.5 C19,65.5 5.5,52 5.5,35.5 C5.5,19 19,5.5 35.5,5.5 Z" id="Shape"></path>
        </g>
    </g>
</svg>