<?xml version="1.0" encoding="UTF-8"?>
<svg width="21px" height="21px" viewBox="0 0 21 21" version="1.1" xmlns="http://www.w3.org/2000/svg" xmlns:xlink="http://www.w3.org/1999/xlink">
    <!-- Generator: Sketch 49.3 (51167) - http://www.bohemiancoding.com/sketch -->
    <title>True Stroked Copy 10</title>
    <desc>Created with Sketch.</desc>
    <defs></defs>
    <g id="Page-1" stroke="none" stroke-width="1" fill="none" fill-rule="evenodd">
        <g id="Price-tables-#1" transform="translate(-136.000000, -213.000000)" fill="#B2B2B2">
            <g id="True-Stroked-Copy-10" transform="translate(136.000000, 213.000000)">
                <path d="M5.02923077,11.305 C4.94307692,11.214 4.9,11.0775 4.9,10.9865 C4.9,10.8955 4.94307692,10.759 5.02923077,10.668 L5.63230769,10.031 C5.80461538,9.849 6.06307692,9.849 6.23538462,10.031 L6.27846154,10.0765 L8.64769231,12.761 C8.73384615,12.852 8.86307692,12.852 8.94923077,12.761 L14.7215385,6.4365 L14.7650462,6.4365 C14.9369231,6.2545 15.1958154,6.2545 15.3676923,6.4365 L15.9707692,7.0735 C16.1430769,7.2555 16.1430769,7.5285 15.9707692,7.7105 L9.07846154,15.2635 C8.99230769,15.3545 8.90615385,15.4 8.77692308,15.4 C8.64769231,15.4 8.56153846,15.3545 8.47538462,15.2635 L5.11538462,11.4415 L5.02923077,11.305 Z M18.9,10.5 C18.9,15.12 15.12,18.9 10.5,18.9 C5.859,18.9 2.1,15.12 2.1,10.5 C2.1,5.88 5.88,2.1 10.5,2.1 C15.12,2.1 18.9,5.88 18.9,10.5 L18.9,10.5 Z M10.5,0 C4.704,0 0,4.704 0,10.5 C0,16.296 4.704,21 10.5,21 C16.296,21 21,16.296 21,10.5 C21,4.704 16.296,0 10.5,0 Z" id="True-Stroked"></path>
            </g>
        </g>
    </g>
</svg>